<svg xmlns="http://www.w3.org/2000/svg" width="805" height="600"><rect width="805" height="600" x="0" y="0" fill="#FFFFFF" id="backgorund"/><g id="viz"><clipPath id="serieClipPath"><rect x="-50" y="-10" width="805" height="600"/></clipPath><g transform="translate(0,0)"><g transform="translate(50,10)" clip-path="url(#serieClipPath)"><g id="axis"><g transform="translate(0,570)" fill="none" font-size="10" font-family="sans-serif" text-anchor="middle"><path class="domain" stroke="currentColor" d="M0,6V0H740V6"/><g class="tick" opacity="1" transform="translate(0,0)"><line stroke="currentColor" y2="6"/><text fill="currentColor" y="9" dy="0.71em">Fri 07</text></g><g class="tick" opacity="1" transform="translate(47.74193548387097,0)"><line stroke="currentColor" y2="6"/><text fill="currentColor" y="9" dy="0.71em">Oct 09</text></g><g class="tick" opacity="1" transform="translate(95.48387096774194,0)"><line stroke="currentColor" y2="6"/><text fill="currentColor" y="9" dy="0.71em">Tue 11</text></g><g class="tick" opacity="1" transform="translate(143.2258064516129,0)"><line stroke="currentColor" y2="6"/><text fill="currentColor" y="9" dy="0.71em">Thu 13</text></g><g class="tick" opacity="1" transform="translate(190.96774193548387,0)"><line stroke="currentColor" y2="6"/><text fill="currentColor" y="9" dy="0.71em">Sat 15</text></g><g class="tick" opacity="1" transform="translate(238.70967741935482,0)"><line stroke="currentColor" y2="6"/><text fill="currentColor" y="9" dy="0.71em">Mon 17</text></g><g class="tick" opacity="1" transform="translate(286.4516129032258,0)"><line stroke="currentColor" y2="6"/><text fill="currentColor" y="9" dy="0.71em">Wed 19</text></g><g class="tick" opacity="1" transform="translate(334.19354838709677,0)"><line stroke="currentColor" y2="6"/><text fill="currentColor" y="9" dy="0.71em">Fri 21</text></g><g class="tick" opacity="1" transform="translate(381.93548387096774,0)"><line stroke="currentColor" y2="6"/><text fill="currentColor" y="9" dy="0.71em">Oct 23</text></g><g class="tick" opacity="1" transform="translate(429.6774193548387,0)"><line stroke="currentColor" y2="6"/><text fill="currentColor" y="9" dy="0.71em">Tue 25</text></g><g class="tick" opacity="1" transform="translate(477.41935483870964,0)"><line stroke="currentColor" y2="6"/><text fill="currentColor" y="9" dy="0.71em">Thu 27</text></g><g class="tick" opacity="1" transform="translate(525.1612903225807,0)"><line stroke="currentColor" y2="6"/><text fill="currentColor" y="9" dy="0.71em">Sat 29</text></g><g class="tick" opacity="1" transform="translate(572.9032258064516,0)"><line stroke="currentColor" y2="6"/><text fill="currentColor" y="9" dy="0.71em">Mon 31</text></g><g class="tick" opacity="1" transform="translate(596.7741935483871,0)"><line stroke="currentColor" y2="6"/><text fill="currentColor" y="9" dy="0.71em">November</text></g><g class="tick" opacity="1" transform="translate(644.516129032258,0)"><line stroke="currentColor" y2="6"/><text fill="currentColor" y="9" dy="0.71em">Thu 03</text></g><g class="tick" opacity="1" transform="translate(692.258064516129,0)"><line stroke="currentColor" y2="6"/><text fill="currentColor" y="9" dy="0.71em">Sat 05</text></g><g class="tick" opacity="1" transform="translate(740,0)"><line stroke="currentColor" y2="6"/><text fill="currentColor" y="9" dy="0.71em">Mon 07</text></g><text x="740" dy="-5" text-anchor="end" style="font-family: Arial, sans-serif; font-size: 12px; fill: rgb(123, 123, 123); font-weight: bold;">日期</text></g><g transform="translate(0,0)" fill="none" font-size="10" font-family="sans-serif" text-anchor="end"><path class="domain" stroke="currentColor" d="M0,570V0"/><g class="tick" opacity="1" transform="translate(0,570)"><line stroke="currentColor" x2="-6"/><text fill="currentColor" x="-9" dy="0.32em">370</text></g><g class="tick" opacity="1" transform="translate(0,498.75)"><line stroke="currentColor" x2="-6"/><text fill="currentColor" x="-9" dy="0.32em">380</text></g><g class="tick" opacity="1" transform="translate(0,427.5)"><line stroke="currentColor" x2="-6"/><text fill="currentColor" x="-9" dy="0.32em">390</text></g><g class="tick" opacity="1" transform="translate(0,356.25)"><line stroke="currentColor" x2="-6"/><text fill="currentColor" x="-9" dy="0.32em">400</text></g><g class="tick" opacity="1" transform="translate(0,285)"><line stroke="currentColor" x2="-6"/><text fill="currentColor" x="-9" dy="0.32em">410</text></g><g class="tick" opacity="1" transform="translate(0,213.75)"><line stroke="currentColor" x2="-6"/><text fill="currentColor" x="-9" dy="0.32em">420</text></g><g class="tick" opacity="1" transform="translate(0,142.5)"><line stroke="currentColor" x2="-6"/><text fill="currentColor" x="-9" dy="0.32em">430</text></g><g class="tick" opacity="1" transform="translate(0,71.25)"><line stroke="currentColor" x2="-6"/><text fill="currentColor" x="-9" dy="0.32em">440</text></g><g class="tick" opacity="1" transform="translate(0,0)"><line stroke="currentColor" x2="-6"/><text fill="currentColor" x="-9" dy="0.32em">450</text></g><text x="4" text-anchor="start" dominant-baseline="hanging" style="font-family: Arial, sans-serif; font-size: 12px; fill: rgb(123, 123, 123); font-weight: bold;">開市</text></g></g><g id="viz"><g><path d="M0,10.687500000000025C47.74193548387097,10.687500000000025,47.74193548387097,299.25,95.48387096774194,299.25C107.41935483870967,299.25,107.41935483870967,377.625,119.35483870967741,377.625C131.29032258064515,377.625,131.29032258064515,352.6875,143.2258064516129,352.6875C155.16129032258064,352.6875,155.16129032258064,252.9375,167.09677419354838,252.9375C202.9032258064516,252.9375,202.9032258064516,356.25,238.70967741935482,356.25C250.6451612903226,356.25,250.6451612903226,309.9375,262.58064516129036,309.9375C274.51612903225805,309.9375,274.51612903225805,327.75,286.4516129032258,327.75C298.38709677419354,327.75,298.38709677419354,420.375,310.3225806451613,420.375C322.258064516129,420.375,322.258064516129,388.3125,334.19354838709677,388.3125C370,388.3125,370,391.875,405.8064516129032,391.875C417.741935483871,391.875,417.741935483871,498.75,429.6774193548387,498.75C441.61290322580646,498.75,441.61290322580646,566.4375,453.5483870967742,566.4375C465.48387096774195,566.4375,465.48387096774195,466.6875,477.41935483870964,466.6875C489.3548387096774,466.6875,489.3548387096774,502.3125,501.2903225806451,502.3125C537.0967741935483,502.3125,537.0967741935483,456,572.9032258064516,456C584.8387096774193,456,584.8387096774193,438.1875,596.7741935483871,438.1875C608.7096774193549,438.1875,608.7096774193549,420.375,620.6451612903226,420.375C632.5806451612902,420.375,632.5806451612902,463.125,644.516129032258,463.125C656.4516129032259,463.125,656.4516129032259,491.625,668.3870967741935,491.625C704.1935483870968,491.625,704.1935483870968,427.5,740,427.5" stroke="#1f77b4" fill="none"/><text font-family="sans-serif" font-size="10" class="labels" x="0" y="10.687500000000025" dx="0" dy="-4" text-anchor="middle"/></g></g></g><text y="4" x="4" style="font-family: Arial, sans-serif; font-size: 12px; fill: black; font-weight: bold; dominant-baseline: hanging;"/></g><g id="grid"><rect x="0" y="0" width="805" height="600" fill="none" stroke="#ccc"/></g></g></svg>